<svg xmlns="http://www.w3.org/2000/svg" viewBox="0 0 56.93 55.44"><defs><style>.cls-1{fill:#212529;}</style></defs><title>deliveryman</title><g id="Слой_2" data-name="Слой 2"><g id="Capa_1" data-name="Capa 1"><path class="cls-1" d="M48.65,39.47l-11.77,5.7-4.54-9.4,11.77-5.69ZM46,15.91,55.7,36l-5.89,2.84L40.09,18.76ZM40.62,46.77l16.31-7.61-.38-1.6-17.69,8.2a4.92,4.92,0,0,0-2.67-.11l-.47.14-12.14-23A3.08,3.08,0,0,0,20.73,18c-.29,0-.39.07-.6.09A20.72,20.72,0,0,1,12,15.6c0-.29,0-.59,0-.88-.15-2.42-1.56-4.55-4.19-4.7-2.21-.13-4.86,1.76-4.71,4.19.35,5.73.35,7.13.33,12.62H3.32c0,.73.07,1.94.11,2.67a4.37,4.37,0,0,0,1.05,2.74l0,0c.7,1.09.65,2.25,1.21,3.41-1,4.95-4.33,9.9-5.6,14.81-.94,3.6,4.62,5.13,5.55,1.53,1.29-4.94,5.22-9.94,6.27-14.93a3.83,3.83,0,0,0,.07-.73c3.46,3.57,5.78,9.39,6.22,14.46.32,3.68,6.08,3.71,5.76,0A31.24,31.24,0,0,0,12.31,29l-.06-1.27h0c0-3.45,0-2.29,0-5.73a26.53,26.53,0,0,0,7.42,1.68v.07A16.67,16.67,0,0,0,22,23.6a2,2,0,0,0,.45-.11L34.19,46.65a5,5,0,1,0,6.43.12Zm-2.9,5.34a1.67,1.67,0,1,1,1.24-2A1.68,1.68,0,0,1,37.72,52.11Zm1.21-32.73,4.55,9.4L31.71,34.47l-4.55-9.39ZM7.67,0A4.33,4.33,0,1,1,3.34,4.33,4.33,4.33,0,0,1,7.67,0Z"/></g></g></svg>