<svg xmlns="http://www.w3.org/2000/svg" viewBox="0 0 56.92 59.65"><defs><style>.cls-1{fill:#212529;}</style></defs><title>human</title><g id="Слой_2" data-name="Слой 2"><g id="Layer_1" data-name="Layer 1"><path class="cls-1" d="M56.8,59.16c-.06-.26-1.52-6.54-3.07-8.11-3-3-14.62-6-16.55-6.49l-.91-6.05a11.75,11.75,0,0,0,2.18-2.83A16.57,16.57,0,0,0,39.91,31c.17-.86.34-1.68.57-2.47a4.54,4.54,0,0,0,2.94-3.57,5.42,5.42,0,0,0-.16-3l.46-.16a1.57,1.57,0,0,0,.36-3.09V16.12A14.78,14.78,0,0,0,36.29,3.29l-.12.29c-2.52,6.15-2.57,14.8-2.55,16.72h-.87c0-2,0-10.75,2.6-17,.14-.35.29-.69.45-1a.45.45,0,0,0-.2-.58A16.16,16.16,0,0,0,28.44,0a15.88,15.88,0,0,0-7.12,1.66.44.44,0,0,0-.2.58c.15.33.31.67.45,1,2.58,6.29,2.63,15,2.6,17H23.3c0-1.92,0-10.57-2.53-16.71-.05-.1-.1-.2-.14-.3a14.77,14.77,0,0,0-7.79,12.83V18.7a1.57,1.57,0,0,0,.36,3.09l.46.16a5.42,5.42,0,0,0-.16,3,4.52,4.52,0,0,0,2.93,3.57c.24.79.41,1.61.58,2.47a16.57,16.57,0,0,0,1.46,4.71,11.27,11.27,0,0,0,2.18,2.83l-.91,6.05C17.82,45,6.16,48,3.19,51.05,1.64,52.62.17,58.9.11,59.16L0,59.65H56.92ZM37.26,53.81H19.68L15,46.71c2.19-.66,4-1.14,4.81-1.34.64,1.72,4.76,2.65,8.67,2.65s8-.91,8.65-2.65c.76.19,2.62.67,4.83,1.34l-4.7,7.09Zm-24-32.89a.7.7,0,1,1-.06-1.4l4.91,1.63a.32.32,0,0,0,.14,0h20.4a.32.32,0,0,0,.14,0l4.91-1.63a.72.72,0,0,1,.69.7.73.73,0,0,1-.76.7l-.14,0-4.91,1.64H18.33l-4.92-1.64Zm5.9,14.38a16.22,16.22,0,0,1-1.38-4.49A26.54,26.54,0,0,0,17.13,28l-.08-.24-.25,0c-1.13-.16-2.17-1.4-2.52-3a4.57,4.57,0,0,1,.14-2.56l3.7,1.23a.32.32,0,0,0,.14,0h20.4a.32.32,0,0,0,.14,0l3.7-1.23a4.57,4.57,0,0,1,.14,2.56c-.35,1.6-1.39,2.84-2.53,3l-.24,0-.08.24a24.23,24.23,0,0,0-.66,2.77,16.22,16.22,0,0,1-1.38,4.49A11.09,11.09,0,0,1,28.46,41,11.09,11.09,0,0,1,19.17,35.3Zm2.2,3.84a11.46,11.46,0,0,0,7.09,2.69,11.46,11.46,0,0,0,7.09-2.69l.88,5.76c0,1-3,2.32-8,2.32s-8-1.35-8-2.26ZM3.76,51.61c1.11-1.12,3.62-2.28,6.35-3.29l4.08,6.17v4.36H1C1.51,56.82,2.7,52.68,3.76,51.61Zm39,7.24V54.49l4.09-6.17c2.73,1,5.24,2.17,6.35,3.29s2.25,5.21,2.75,7.24Z"/></g></g></svg>