<svg xmlns="http://www.w3.org/2000/svg" viewBox="0 0 62.12 49.4"><defs><style>.cls-1{fill:#212529;}</style></defs><title>instrumentBox</title><g id="Слой_2" data-name="Слой 2"><g id="Layer_1" data-name="Layer 1"><rect class="cls-1" x="43.31" y="30.17" width="4.13" height="4.13"/><path class="cls-1" d="M17.59,7.59V12H20V7.59A2,2,0,0,0,20.79,6a2,2,0,0,1,2-2H39.34a2,2,0,0,1,2,2,2,2,0,0,0,.8,1.59V12h2.4V7.59A2,2,0,0,0,45.34,6a6,6,0,0,0-6-6H22.79a6,6,0,0,0-6,6A2,2,0,0,0,17.59,7.59Z"/><path class="cls-1" d="M13,20.46H10.77a1.6,1.6,0,0,1-1.6-1.6v-2.1a1.59,1.59,0,0,1,1.6-1.6h11a1.6,1.6,0,0,1,1.61,1.6v2.1a1.61,1.61,0,0,1-1.61,1.6H19.55v4H42.11v-4H39.86a1.6,1.6,0,0,1-1.6-1.6v-2.1a1.6,1.6,0,0,1,1.6-1.6h11a1.59,1.59,0,0,1,1.6,1.6v2.1a1.6,1.6,0,0,1-1.6,1.6H48.65v4H62.12l-1-7a4.77,4.77,0,0,0-4.58-4H6.4a5.21,5.21,0,0,0-4.86,3.9L0,24.49H13Z"/><rect class="cls-1" x="14.21" y="30.17" width="4.13" height="4.13"/><path class="cls-1" d="M48.65,34.3a1.6,1.6,0,0,1-1.6,1.6H43.71a1.6,1.6,0,0,1-1.6-1.6V26.09H19.55V34.3A1.6,1.6,0,0,1,18,35.9H14.61A1.6,1.6,0,0,1,13,34.3V26.09H0L2,45.42a4.53,4.53,0,0,0,4.41,4H55.72a4.52,4.52,0,0,0,4.41-4l2-19.33H48.65ZM33.36,36.7l-1.53,5.16,1.23-.36-1.91,2.63-.48-3.22.93.89.86-4.5-2.89,1.49-1,.53.18-1.2,1.08-7.29,2,.41-1.58,6,2.62-1,.74-.28Z"/></g></g></svg>