<svg xmlns="http://www.w3.org/2000/svg" viewBox="0 0 481.14 481.12"><defs><style>.cls-1{fill:#212529;}</style></defs><title>serviceInfo</title><g id="Слой_2" data-name="Слой 2"><g id="Capa_1" data-name="Capa 1"><path class="cls-1" d="M285.25,354.1c-12.2-12.1-27.5-12.1-39.7,0-9.3,9.2-18.6,18.4-27.7,27.8-2.5,2.6-4.6,3.1-7.7,1.4-6-3.3-12.4-5.9-18.2-9.5-26.9-16.9-49.5-38.7-69.5-63.3-9.9-12.2-18.8-25.2-24.9-39.9-1.2-3-1.1-4.9,1.4-7.3,9.3-9,18.4-18.2,27.5-27.4,12.7-12.8,12.7-27.8-.1-40.7-7.2-7.3-14.5-14.6-21.8-21.8-7.5-7.5-14.9-15-22.5-22.5-12.3-12-27.5-12.1-39.8,0-9.3,9.2-18.4,18.7-27.8,27.7C5.65,187,1.15,197.2.25,209.2c-1.4,19.4,3.3,37.8,10,55.7,13.8,37,34.7,69.8,60,100a370.53,370.53,0,0,0,123.1,96.3c21.5,10.5,43.9,18.5,68.2,19.8,16.7.9,31.3-3.3,42.9-16.3,8-8.9,16.9-17,25.4-25.5,12.5-12.6,12.6-27.9.2-40.4C315.05,383.8,300.15,369,285.25,354.1Z"/><path class="cls-1" d="M436.75,44.4a151.54,151.54,0,0,0-220.7,207.5l1.5,1.3c-5.7,12.4-15.6,27.6-31.2,35.3a5.88,5.88,0,0,0,1.7,11.1c17.1,2.7,41.6-.3,64.4-17.6l.3.3a151.62,151.62,0,0,0,184-237.9ZM336.05,58a24.63,24.63,0,0,1,24.4,25c-.1,13.7-11.2,24.8-24.5,24.7a25,25,0,0,1-24.8-25.1A24.71,24.71,0,0,1,336.05,58Zm35.1,166.5a14.06,14.06,0,0,1-3.4,5.9c-9,9.1-19.7,14.5-32.6,14.7a108.09,108.09,0,0,1-18-1c-9.9-1.4-22.4-13.6-20.6-26.7,1.2-8.9,2.6-17.8,4.1-26.7,2.6-15.4,5.4-30.9,8.1-46.3a15.14,15.14,0,0,0,.2-3c0-6.5-2-8.7-8.4-9.6-2.7-.4-5.6-.6-8.1-1.5-3.2-1.1-4.6-3.6-4.3-6.2s2-4.4,5.5-5.1a26,26,0,0,1,5.6-.4h46.8c5.8,0,9.2,2.7,9.4,8.5a70.59,70.59,0,0,1-1.6,14.4c-3.1,17.6-6.4,35.2-9.6,52.9-1.1,5.8-2.3,11.7-2.9,17.5a24.36,24.36,0,0,0,.8,8.5,6.49,6.49,0,0,0,7.4,5.3,43.6,43.6,0,0,0,9.2-2.6c2.4-.9,4.5-2.6,7-3.5C369.05,218.3,372.05,220.8,371.15,224.5Z"/></g></g></svg>