<svg xmlns="http://www.w3.org/2000/svg" viewBox="0 0 42.46 53.59"><defs><style>.cls-1{fill:#212529;}</style></defs><title>simpleTools</title><g id="Слой_2" data-name="Слой 2"><g id="Layer_1" data-name="Layer 1"><path class="cls-1" d="M4.61,0C2.06,0,0,.62,0,1.38v17l1.24,7.23a1.28,1.28,0,0,0-1,1.24v.7A1.29,1.29,0,0,0,1.56,28.8H2.92V46.37L2.28,49a.38.38,0,0,0,0,.15l.64,4.06a.4.4,0,0,0,.4.34H5.9a.4.4,0,0,0,.4-.34l.64-4.06a.38.38,0,0,0,0-.15L6.3,46.37V28.8H7.66A1.29,1.29,0,0,0,9,27.51v-.7a1.28,1.28,0,0,0-1-1.24l1.24-7.23v-17C9.22.62,7.15,0,4.61,0ZM2.87,15.4a.65.65,0,1,1-1.29,0V3.72a.65.65,0,0,1,1.29,0ZM4,3.72a.65.65,0,0,1,1.3,0V15.4a.65.65,0,0,1-1.3,0Zm1.6,49.07H3.66l-.58-3.65.63-2.63s0-.06,0-.09V28.8H5.5V46.42s0,.06,0,.09l.63,2.63ZM7.64,15.4a.65.65,0,1,1-1.29,0V3.72a.65.65,0,0,1,1.29,0Z"/><path class="cls-1" d="M42.39,42.83a25.62,25.62,0,0,0-2.14-8A39.35,39.35,0,0,0,36.36,28c-.75-1.07-1.53-2.1-2.35-3.09l-.4-.47.7,0a1.36,1.36,0,0,0,.32-2.67l.7-5.8a.34.34,0,0,0,0-.14L32.46,4a.41.41,0,0,0-.39-.3H26.7a.39.39,0,0,0-.39.3L23.45,15.77a.23.23,0,0,0,0,.14l.7,5.8a1.36,1.36,0,0,0,.31,2.67l.7,0-.39.47c-.82,1-1.6,2-2.35,3.09a40,40,0,0,0-3.9,6.86,25.88,25.88,0,0,0-2.13,8A19.7,19.7,0,0,0,16.32,45a18.45,18.45,0,0,0,.18,2.21,18,18,0,0,0,.5,2.27c.25.88.45,1.35.67,2a3.45,3.45,0,0,0,.14.34A3.21,3.21,0,0,0,23.57,49l0,0a15.2,15.2,0,0,1-.71-1.5,10.61,10.61,0,0,1-.75-2.83A13.13,13.13,0,0,1,22,43a20.36,20.36,0,0,1,1-6.53,35.46,35.46,0,0,1,2.78-6.46C26.32,29,26.94,28,27.6,27c.32-.51.67-1,1-1.49s.51-.71.77-1c.26.33.53.69.78,1s.68,1,1,1.49c.66,1,1.27,2,1.84,3.08a35.51,35.51,0,0,1,2.79,6.46,20.36,20.36,0,0,1,1,6.53,13.13,13.13,0,0,1-.13,1.55,14.53,14.53,0,0,1-.29,1.49,12.22,12.22,0,0,1-.46,1.34c-.1.31-.45,1-.71,1.5l0,.07a2.52,2.52,0,0,0-.14.33,3.21,3.21,0,1,0,6.05,2.13c.22-.61.42-1.08.67-2a18,18,0,0,0,.5-2.27A20.78,20.78,0,0,0,42.45,45,19.7,19.7,0,0,0,42.39,42.83ZM29,21.37H24.91l-.67-5.48L27,4.5h2.2l-.84.93a.4.4,0,0,0,0,.54L29.56,7.3,28.37,8.64a.4.4,0,0,0,0,.54l1.19,1.34-1.19,1.34a.39.39,0,0,0,0,.53l.73.82a2.5,2.5,0,0,0-.12,5Zm.4-4a1.72,1.72,0,1,1,1.72-1.72A1.72,1.72,0,0,1,29.38,17.41Zm.4,4v-3.2a2.5,2.5,0,0,0,.52-4.81l-1.1-1.24,1.2-1.34a.41.41,0,0,0,0-.53L29.2,8.91l1.2-1.34a.41.41,0,0,0,0-.53L29.2,5.7l1.08-1.2h1.48l2.77,11.39-.67,5.48Z"/></g></g></svg>