<?xml version="1.0" encoding="utf-8"?>
<!-- Generator: Adobe Illustrator 23.0.1, SVG Export Plug-In . SVG Version: 6.00 Build 0)  -->
<svg version="1.1" id="Слой_1" xmlns="http://www.w3.org/2000/svg" xmlns:xlink="http://www.w3.org/1999/xlink" x="0px" y="0px"
	 viewBox="0 0 34.5 56.8" style="enable-background:new 0 0 34.5 56.8;" xml:space="preserve">
<style type="text/css">
	.st0{fill:#212529;}
</style>
<title>Ресурс 2</title>
<g>
	<g id="Layer_1">
		<path class="st0" d="M28,33.8c0.6-2.3,2.8-5.7,3.8-7.2c1.8-2.8,2.8-6,2.8-9.3C34,7.7,25.9,0.4,16.4,0.9C7.5,1.3,0.4,8.4,0,17.3
			c0,3.2,0.9,6.3,2.6,9.1l0.1,0.2c1.5,2.2,2.7,4.6,3.7,7.1l1.7,4.1c-1.3,0.2-2.2,1.5-1.9,2.8c0.1,0.5,0.3,0.9,0.7,1.3
			c-0.9,0.9-0.9,2.4,0,3.4c0,0,0,0,0,0c-0.9,0.9-0.9,2.5,0,3.4c0.4,0.5,1.1,0.7,1.7,0.7h0.3v1.4c0,1.2,1,2.2,2.2,2.2h2.4V53
			c0,2.1,1.7,3.8,3.8,3.8s3.8-1.7,3.8-3.8v-0.1h2.4c1.2,0,2.2-1,2.2-2.2v-1.4H26c1.3,0,2.4-1.1,2.4-2.4c0-0.6-0.3-1.2-0.7-1.7
			c0.9-0.9,0.9-2.4,0-3.4c0,0,0,0,0,0c0.9-0.9,0.9-2.5,0-3.4c-0.3-0.3-0.8-0.6-1.2-0.7L28,33.8L28,33.8z M4,25.7v-0.2
			c-1.6-2.5-2.4-5.3-2.4-8.2c0-8.7,7-15.7,15.7-15.7s15.7,7,15.7,15.7c0,3-0.9,6-2.5,8.5c-1.5,2.4-3.3,5.3-4,7.6l-1.6,4.3H21
			c-0.8-11.1,4.9-20.8,4.9-20.9c0.1-0.1,0.1-0.3,0-0.4l-2.8-3.9c-0.1-0.1-0.2-0.2-0.3-0.2c-0.1,0-0.2,0.1-0.3,0.2L20,15.9l-2.4-3.4
			c-0.1-0.2-0.4-0.2-0.6-0.1c0,0-0.1,0-0.1,0.1l-2.4,3.4l-2.4-3.4c-0.1-0.2-0.4-0.2-0.6-0.1c0,0-0.1,0-0.1,0.1l-2.8,3.9
			c-0.1,0.1-0.1,0.3,0,0.4c0.1,0.1,5.7,9.8,4.9,20.9H9.8l-1.9-4.6C7.2,30.8,5.3,27.7,4,25.7L4,25.7z M14.3,37.7
			c0.7-10.4-4-19.6-4.9-21.1l2.3-3.2l2.4,3.4c0.1,0.1,0.2,0.2,0.3,0.2c0.1,0,0.2-0.1,0.3-0.2l2.4-3.4l2.4,3.4
			c0.1,0.1,0.2,0.2,0.4,0.2c0.1,0,0.2-0.1,0.3-0.2l2.4-3.4l2.3,3.2c-0.9,1.5-5.6,10.7-4.9,21.1L14.3,37.7z"/>
	</g>
</g>
</svg>
