<svg xmlns="http://www.w3.org/2000/svg" viewBox="0 0 48.96 48.96"><defs><style>.cls-1{fill:#212529;}</style></defs><title>rozetka</title><g id="Слой_2" data-name="Слой 2"><g id="Layer_1" data-name="Layer 1"><path class="cls-1" d="M45,0H4A4,4,0,0,0,0,4V45a4,4,0,0,0,4,4H45a4,4,0,0,0,4-4V4A4,4,0,0,0,45,0Zm.8,45a.8.8,0,0,1-.8.8H4a.8.8,0,0,1-.8-.8V4A.8.8,0,0,1,4,3.2H45a.8.8,0,0,1,.8.8Z"/><path class="cls-1" d="M18.41,26.88a2.4,2.4,0,1,0-2.4-2.4A2.39,2.39,0,0,0,18.41,26.88Z"/><path class="cls-1" d="M30.55,26.88a2.4,2.4,0,1,0-2.4-2.4A2.4,2.4,0,0,0,30.55,26.88Z"/><path class="cls-1" d="M24.48,26.48a2,2,0,1,0-2-2A2,2,0,0,0,24.48,26.48Zm0-.8a1.07,1.07,0,0,1-.51-.12L25.56,24a1.23,1.23,0,0,1,.12.51A1.2,1.2,0,0,1,24.48,25.68Zm0-2.4a1.23,1.23,0,0,1,.51.12L23.4,25a1.19,1.19,0,0,1,1.08-1.71Z"/><path class="cls-1" d="M24.48,38A13.54,13.54,0,1,0,10.94,24.48,13.56,13.56,0,0,0,24.48,38Zm0-25.48A11.94,11.94,0,1,1,12.54,24.48,11.95,11.95,0,0,1,24.48,12.54Z"/><path class="cls-1" d="M4.8,44.16H44.16V4.8H4.8ZM24.48,9.34A15.14,15.14,0,1,1,9.34,24.48,15.15,15.15,0,0,1,24.48,9.34Z"/></g></g></svg>