<svg xmlns="http://www.w3.org/2000/svg" viewBox="0 0 612 572.85"><defs><style>.cls-1{fill:#212529;}</style></defs><title>call24</title><g id="Слой_2" data-name="Слой 2"><g id="Capa_1" data-name="Capa 1"><path class="cls-1" d="M339.3,0C247.11,0,165.52,46,116.13,116.25c10.22,6.67,20.19,15.81,29.82,27.57C182.8,88.73,242.37,50.07,311.3,41.76l28,47.38,28-47.38c106,12.77,190.17,97,202.94,202.94l-47.38,28,47.39,28c-8.54,70.84-49.11,131.82-106.67,168.37a70.67,70.67,0,0,1,6.1,25.71,67.89,67.89,0,0,1-1.73,18.3C553.61,467.05,612,376.58,612,272.7,612,122.33,489.67,0,339.3,0Zm69.59,449.12c-62.87-50.53-80.45-25.69-109,2.83C280,471.87,229.61,430.27,186.1,386.76S101,292.85,120.9,272.93c28.53-28.52,53.36-46.11,2.82-109s-84.2-14.6-111.83,13C-20,208.89,10.21,327.73,127.66,445.2S364,592.85,395.84,561C423.47,533.34,471.75,499.66,408.89,449.12ZM217.43,315.38c0-55.88,65.42-65.83,65.42-87.64,0-10.58-8.47-15-16.31-15-14.39,0-22.43,16.08-22.43,16.08l-27.52-18.41s14-32.6,53.34-32.6c24.77,0,51.65,14.18,51.65,46.36,0,47.2-61,56.31-62,75.78h64.36v31.76H219.12A92.62,92.62,0,0,1,217.43,315.38Zm122-42.75,58.44-92.31h45.3v84.05h18v30.69h-18v36.63H406.5V295.06H339.39V272.63Zm67.11-8.26V230.5a135.32,135.32,0,0,1,1.27-16.94h-.42s-3.18,9.31-7.41,15.67L377.08,264v.42Z"/></g></g></svg>