<svg xmlns="http://www.w3.org/2000/svg" viewBox="0 0 560.76 560.76"><defs><style>.cls-1{fill:#202428;}</style></defs><title>Telegram</title><g id="Слой_2" data-name="Слой 2"><g id="Layer_1" data-name="Layer 1"><path class="cls-1" d="M280.38,560.76A280.38,280.38,0,0,1,82.12,82.12,280.38,280.38,0,0,1,478.64,478.64,278.54,278.54,0,0,1,280.38,560.76Zm0-533.76C140.67,27,27,140.67,27,280.38S140.67,533.76,280.38,533.76,533.76,420.1,533.76,280.38,420.1,27,280.38,27Z"/><path class="cls-1" d="M346.94,428.68a33.89,33.89,0,0,1-13.57-3,10.93,10.93,0,0,1-2.18-1.3L222,340.67,183.6,322.1l-66.71-22.46-.16-.06c-1.68-.59-16.49-6.23-18.24-20.26-1.51-12.05,8.94-20.16,18.45-23.48L384.23,151c4.37-1.89,18.33-7,28.32-.49,3.06,2,8.19,6.8,8.19,16.53a10.69,10.69,0,0,1-.2,2L372.87,409.4a10.07,10.07,0,0,1-.55,1.85c-.45,1.13-4.7,11.13-15.33,15.49A26.29,26.29,0,0,1,346.94,428.68Zm-4.09-21.85c2.55,1,4.62,1.12,6.17.48a8.23,8.23,0,0,0,3.52-3.35L399.26,168.4a29.57,29.57,0,0,0-6.8,1.9l-.38.16-267.67,105-.44.16a18.46,18.46,0,0,0-3.82,2,13.68,13.68,0,0,0,3.62,2.18l67.15,22.61a10.06,10.06,0,0,1,1.22.5l40,19.33a10.22,10.22,0,0,1,1.82,1.12Z"/><path class="cls-1" d="M269.75,364l-43.51,39.67c0,1.29-7.12,1.29-7.12,0L227.45,331l.46-1.28s122-109.67,127-114.34,3.33-5.66,3.33-5.66c.33-5.67-9,0-9,0L187.57,312.35s20.34,66.67,24.34,79.34,6.35,12.43,7.21,12.43"/><path class="cls-1" d="M222.68,415.16a20.39,20.39,0,0,1-5.11-.61c-9-1-12.81-10.62-15.68-19.7-4-12.57-23.53-76.71-24.36-79.43A10.49,10.49,0,0,1,182,303.49L343.61,200.82l.18-.11c5.16-3.13,12.65-6.06,19-2.23a12.28,12.28,0,0,1,5.77,8.72,11,11,0,0,1,.37,1.9c.64,6.07-3.33,10.63-6.87,13.93-4.66,4.35-106.33,95.76-124.53,112.12l-5.63,49.17,30.77-28.06a10.5,10.5,0,0,1,14.15,15.52L234.2,410.65C232.11,413.16,228.52,415.16,222.68,415.16ZM200,316.93c3.07,10.06,8.64,28.3,13.49,44.1L217,329.77a10.5,10.5,0,0,1,.54-2.33l.46-1.28a10.39,10.39,0,0,1,2.87-4.28c18.76-16.86,45.16-40.61,69-62.08Z"/><path class="cls-1" d="M269.74,374.52a10.43,10.43,0,0,1-6.45-2.22L221,339.24a10.49,10.49,0,0,1,12.92-16.54l42.31,33.05a10.5,10.5,0,0,1-6.48,18.77Z"/></g></g></svg>