<svg xmlns="http://www.w3.org/2000/svg" viewBox="0 0 365 394.03"><defs><style>.cls-1{fill:#212529;}</style></defs><title>Viber</title><g id="Слой_2" data-name="Слой 2"><g id="Layer_1" data-name="Layer 1"><path class="cls-1" d="M334.47,220.86c-9.71,80.07-66.92,85.13-77.46,88.6-4.5,1.47-46.23,12.09-98.67,8.58l-56.86,63-.06-72.61-.45-.11C24.59,286.6,27.16,205.17,28,162.43s8.7-77.77,32-101.31c41.85-38.82,128.08-33,128.08-33,72.82.33,107.73,22.77,115.82,30.29C330.79,82,344.48,138.3,334.47,220.86M323.8,38.4C314.23,29.4,275.58.67,189.49.28c0,0-101.51-6.27-151,40.21C10.94,68.7,1.25,110,.22,161.14s-2.34,147.08,88,173.09l.08,0-.05,39.68S87.65,390,98,393.27c12.5,4,19.84-8.24,31.77-21.4,6.56-7.22,15.59-17.83,22.4-25.94,61.77,5.29,109.26-6.85,114.65-8.65,12.48-4.15,83-13.39,94.51-109.28,11.84-98.87-5.74-161.39-37.49-189.6"/><path class="cls-1" d="M268.72,232.8s-11.58-9.88-17.22-14.13c-5.32-4-13.79-9.37-18.53-12.11-8.51-4.84-17.2-1.8-20.78,3l-7.45,9.59c-3.82,4.86-9.71,4-11.25,3.73-11-2.76-22.72-9.65-34.7-21.25s-19.46-23.94-22.08-36.65l-.19-.84c-.7-5.22.17-7.64,2.3-11.2l.4-.33c5-4.68,14.37-10.38,15.62-15.8,3.66-9.42-12.26-29.07-14.53-32.53,0,0-11.58-15.33-15.7-18.26-4.44-3.7-11.33-5.81-18.27-1.54l-.36.26C86,98.2,78.8,106,80.77,117.54l1,4.66c10.12,31.89,29.65,65.9,58.79,96.18,28.82,29.9,60,47.81,90.72,60.22,8,2.65,16.27.36,24.76-6.89l.14-.1A79.14,79.14,0,0,0,271.71,252l0-.14c3.74-7.37,2.47-14.35-3-19.1"/><path class="cls-1" d="M220.88,163a2.32,2.32,0,0,1-2.29-2.22c-.4-8.27-2.63-14.6-6.62-18.83s-9.93-6.55-17.69-7a2.36,2.36,0,0,1,.25-4.71c9,.5,15.93,3.33,20.74,8.41s7.45,12.42,7.91,21.86A2.33,2.33,0,0,1,221,163h-.12"/><path class="cls-1" d="M243.62,170.76h-.06a2.33,2.33,0,0,1-2.24-2.41c.35-15.87-4.28-29.29-13.79-39.9A50.2,50.2,0,0,0,210.45,116a69,69,0,0,0-22.94-5.44,2.35,2.35,0,0,1,.33-4.69c18.33,1.38,32.82,7.9,43.09,19.4s15.36,26.06,15,43.18a2.35,2.35,0,0,1-2.3,2.3"/><path class="cls-1" d="M266.9,180.08a2.32,2.32,0,0,1-2.3-2.34c-.11-14-2.22-26.72-6.3-37.73a78.88,78.88,0,0,0-18.2-28.56A82,82,0,0,0,213,93.29a89.65,89.65,0,0,0-33.12-6.24,2.35,2.35,0,0,1,0-4.7h0c25.16.19,46.49,8.84,63.43,25.74a83.24,83.24,0,0,1,19.28,30.26c4.27,11.52,6.49,24.77,6.6,39.36a2.32,2.32,0,0,1-2.27,2.37Z"/></g></g></svg>